<svg width="24" height="24" viewBox="0 0 24 24" fill="none" xmlns="http://www.w3.org/2000/svg">
<path fill-rule="evenodd" clip-rule="evenodd" d="M2.00012 12C2.00012 6.477 6.47712 2 12.0001 2C17.5231 2 22.0001 6.477 22.0001 12C22.0001 17.523 17.5231 22 12.0001 22C10.2701 22.0026 8.5693 21.5546 7.06512 20.7L3.31612 21.949C3.13992 22.0078 2.95084 22.0163 2.77007 21.9736C2.5893 21.931 2.42398 21.8388 2.29265 21.7075C2.16131 21.5761 2.06915 21.4108 2.02649 21.23C1.98383 21.0493 1.99236 20.8602 2.05112 20.684L3.30112 16.935C2.4462 15.4309 1.99781 13.7301 2.00012 12ZM8.00012 7C7.7349 7 7.48055 7.10536 7.29301 7.29289C7.10547 7.48043 7.00012 7.73478 7.00012 8C7.00012 8.26522 7.10547 8.51957 7.29301 8.70711C7.48055 8.89464 7.7349 9 8.00012 9H16.0001C16.2653 9 16.5197 8.89464 16.7072 8.70711C16.8948 8.51957 17.0001 8.26522 17.0001 8C17.0001 7.73478 16.8948 7.48043 16.7072 7.29289C16.5197 7.10536 16.2653 7 16.0001 7H8.00012ZM8.00012 11C7.7349 11 7.48055 11.1054 7.29301 11.2929C7.10547 11.4804 7.00012 11.7348 7.00012 12C7.00012 12.2652 7.10547 12.5196 7.29301 12.7071C7.48055 12.8946 7.7349 13 8.00012 13H16.0001C16.2653 13 16.5197 12.8946 16.7072 12.7071C16.8948 12.5196 17.0001 12.2652 17.0001 12C17.0001 11.7348 16.8948 11.4804 16.7072 11.2929C16.5197 11.1054 16.2653 11 16.0001 11H8.00012ZM8.00012 15C7.7349 15 7.48055 15.1054 7.29301 15.2929C7.10547 15.4804 7.00012 15.7348 7.00012 16C7.00012 16.2652 7.10547 16.5196 7.29301 16.7071C7.48055 16.8946 7.7349 17 8.00012 17H11.0001C11.2653 17 11.5197 16.8946 11.7072 16.7071C11.8948 16.5196 12.0001 16.2652 12.0001 16C12.0001 15.7348 11.8948 15.4804 11.7072 15.2929C11.5197 15.1054 11.2653 15 11.0001 15H8.00012Z" fill="white"/>
</svg>
